<svg width="208" height="208" viewBox="0 0 208 208" fill="none" xmlns="http://www.w3.org/2000/svg">
<path fill-rule="evenodd" clip-rule="evenodd" d="M104.006 3.40804e-05C96.1582 -0.00947596 88.4366 1.97148 81.5629 5.75765C76.3044 8.65414 71.6736 12.5347 67.9135 17.1704C65.868 16.9283 63.8067 16.8224 61.7431 16.8543C61.6853 16.8552 61.6275 16.8567 61.5697 16.8589C49.817 17.2954 38.6685 22.1786 30.3786 30.5211L30.3419 30.5583C24.9009 36.1059 20.9402 42.9312 18.8234 50.4078C17.2046 56.1252 16.7036 62.0836 17.329 67.9591C12.6707 71.7037 8.76587 76.3243 5.8452 81.5781C2.03615 88.4299 0.0251966 96.135 4.00543e-05 103.974L0 104.003C0.00336456 111.865 2.00395 119.596 5.81402 126.472C8.73998 131.753 12.6594 136.396 17.3388 140.156C16.7245 146.043 17.2409 152.012 18.8787 157.735C21.0183 165.212 25.003 172.032 30.4666 177.567L30.5093 177.61C36.0703 183.159 42.9492 187.205 50.5012 189.369C56.303 191.032 62.3561 191.542 68.3215 190.89C72.0433 195.463 76.6137 199.298 81.7985 202.175C88.5752 205.935 96.1859 207.937 103.936 208L103.998 208C111.813 208.002 119.502 206.031 126.352 202.268C131.615 199.377 136.251 195.5 140.018 190.866C145.961 191.485 151.985 190.952 157.756 189.277C165.266 187.097 172.103 183.055 177.632 177.525C183.161 171.996 187.204 165.159 189.383 157.65C191.06 151.873 191.593 145.842 190.971 139.893C195.572 136.131 199.421 131.509 202.293 126.267C206.032 119.442 207.994 111.787 208 104.006V104.002C208.002 96.1871 206.031 88.4979 202.268 81.6481C199.376 76.3851 195.5 71.7486 190.866 67.9824C191.485 62.0393 190.952 56.0148 189.277 50.2438C187.097 42.7341 183.055 35.8972 177.525 30.3679C171.996 24.8386 165.159 20.7964 157.65 18.6167C151.873 16.94 145.842 16.4073 139.893 17.0289C136.131 12.4276 131.509 8.57862 126.267 5.7068C119.444 1.96878 111.79 0.0063784 104.011 3.88488e-05L104.008 3.59877e-05L104.006 3.40804e-05ZM16.0006 104.173C16.0013 103.976 16.0026 103.78 16.0046 103.583C16.0021 103.726 16.0005 103.868 16 104.011C16.0001 104.065 16.0002 104.119 16.0006 104.173Z" fill="#1D9AF9"/>
<path d="M141.745 131.778C138.049 132.661 134.191 133.129 130.224 133.129C102.957 133.129 80.8515 111.024 80.8515 83.7558C80.8515 80.9475 81.0859 78.194 81.5364 75.5137C81.3262 75.7159 81.1089 75.9021 80.8802 76.0757C79.2502 77.3131 77.2203 77.7724 73.1603 78.6911L69.464 79.5274C55.1768 82.76 48.0331 84.3763 46.3335 89.8417C44.6339 95.3073 49.504 101.002 59.2442 112.392L61.764 115.338C64.5318 118.575 65.9158 120.193 66.5383 122.195C67.161 124.197 66.9517 126.357 66.5332 130.675L66.1523 134.606C64.6797 149.803 63.9434 157.401 68.393 160.779C72.8424 164.156 79.531 161.077 92.9084 154.918L96.3691 153.324C100.17 151.574 102.071 150.699 104.086 150.699C106.101 150.699 108.001 151.574 111.803 153.324L115.263 154.918C128.64 161.077 135.329 164.156 139.779 160.779C144.228 157.401 143.492 149.803 142.019 134.606L141.745 131.778Z" fill="white"/>
<path opacity="0.54" d="M87.5489 65.7978L85.6454 69.2124C83.5547 72.9631 82.5093 74.8384 80.8794 76.0757C81.1081 75.9021 81.3254 75.7159 81.5356 75.5137C81.0851 78.194 80.8507 80.9475 80.8507 83.7558C80.8507 111.024 102.955 133.129 130.224 133.129C134.191 133.129 138.048 132.661 141.745 131.778L141.638 130.675C141.219 126.356 141.01 124.197 141.632 122.195C142.255 120.193 143.639 118.575 146.407 115.338L148.927 112.391C158.667 101.002 163.537 95.3067 161.837 89.8416C160.137 84.3762 152.994 82.7599 138.707 79.5273L135.011 78.691C130.95 77.7724 128.92 77.3131 127.291 76.0757C125.661 74.8384 124.615 72.9631 122.525 69.2125L120.621 65.7978C113.263 52.5992 109.585 46 104.085 46C98.5851 46 94.9065 52.5993 87.5489 65.7978Z" fill="white"/>
</svg>
